<svg id="Layer_1" data-name="Layer 1" xmlns="http://www.w3.org/2000/svg" viewBox="0 0 1001.65 331.57"><defs><style>.cls-1,.cls-5{fill:#231f20;}.cls-1,.cls-2,.cls-4,.cls-6{fill-rule:evenodd;}.cls-2{fill:#fff;}.cls-3,.cls-4{fill:#b82025;}.cls-6{fill:#e6e7e8;}</style></defs><title>atomiclogo</title><path class="cls-1" d="M374.39,83.15l22.31-3.46c3.15-.48,7.46-.21,10.11,2l.08,0v0c6.75,5.7,13.48,22.21,16.56,42.32s1.62,37.86-3.11,45.32v0l0,.05c-1.89,2.93-5.78,4.39-8.95,4.88l-3.91.61-.07-.34c-1.14-6.93-3.15-13.91-4.93-20.7a296.49,296.49,0,0,0-28.09-70.75Z"/><path class="cls-2" d="M371.66,179.06c-.37-3.8-3.92-14.12-4.95-17.42-14.13-45.74-39.21-86.22-76.9-111.14-31.53-20.86-68.17-28-102.9-20.86l-.28.05c-34.82,6.72-65.87,27.42-87,58.8C74.44,126,66.83,173,71.34,220.65c.33,3.45,1,14.34,2.14,18,2.37,2.39,9.81,6,12.32,7.19,45.52,21.71,99.8,22.53,146.4,12.58l.24-.05.28,0c46.85-8.73,96.63-30.35,130.34-67.87,1.85-2.06,7.32-8.28,8.59-11.39Z"/><path class="cls-3" d="M389.11,153.93C352,34,260.4-13.2,181.46,3.13c-79.16,15.26-145.63,94-133.78,219,2.58,27.15,2.07,35.22,29.86,48.45,47.28,22.53,105.13,26.07,160.2,14.31,55.37-10.3,107.42-35.8,142.42-74.76C400.73,187.24,397.16,180,389.11,153.93ZM73.46,238.63c-1.12-3.65-1.8-14.55-2.13-18a263.77,263.77,0,0,1-1-35.31c15,8.71,47,27.44,58.16,35.52,9.37,6.81,20.76,29,27.26,42.83-24.11-1.91-48-7.41-69.94-17.86C83.27,244.65,75.83,241,73.46,238.63ZM232.7,258.32l-.27,0-.25.05a270.66,270.66,0,0,1-70.47,5.66c-6.42-13.92-19.49-40.13-30.57-48.19-11.35-8.25-45.46-32.14-59.95-42.27C74,142.77,82.82,113.5,99.63,88.49c21.11-31.38,52.16-52.08,87-58.8l.28-.05c34.73-7.19,71.36,0,102.9,20.86,25.13,16.62,44.54,40.25,59,67.66-9.48,14.91-31.8,50.09-39.1,62.07-7.13,11.69-9.14,40.91-9.71,56.23A270.91,270.91,0,0,1,232.7,258.32ZM363,190.45c-16.21,18-36.19,32.32-57.72,43.35.67-15.3,2.68-40.13,8.71-50,7.16-11.74,29.52-41.34,40.05-55.15a263.16,263.16,0,0,1,12.61,33c1,3.3,4.58,13.62,4.95,17.42C370.36,182.18,364.89,188.39,363,190.45Z"/><path class="cls-1" d="M34.73,150.9l-22.15,4.39c-3.13.63-7.08,2.35-8.82,5.33l-.06.07v0c-4.39,7.66-5.05,25.48-1.06,45.42s11.44,36.13,18.44,41.52v0l.05,0c2.77,2.1,6.93,2.13,10.08,1.52l3.88-.77-.05-.34c-1.31-6.91-1.8-14.15-2.46-21.14a296.77,296.77,0,0,1,2.16-76.09Z"/><path class="cls-4" d="M107.67,127.39,297.32,89.5c6.52-1.31,12.84,2.68,14.07,8.83l3.08,15.4c1.22,6.15-3.1,12.26-9.6,13.56L115.22,165.19c-6.5,1.3-12.84-2.68-14.07-8.84l-3.07-15.4c-1.24-6.16,3.08-12.26,9.59-13.56Z"/><path class="cls-2" d="M109.34,135.76,299,97.87c1.53-.31,4.36.21,4.73,2l3.07,15.4c.35,1.79-2.07,3.37-3.61,3.65L113.55,156.8c-1.53.32-4.38-.19-4.73-2l-3.07-15.41c-.37-1.79,2.06-3.35,3.59-3.65Z"/><path class="cls-4" d="M116.43,138c-.57.11-2.45,1.06-2.29,1.81l2.28,11.7c.15.76,2.23.92,2.8.8L296.12,117c.58-.11,2.43-1.06,2.28-1.81l-2.27-11.7c-.14-.76-2.25-.91-2.8-.79L116.43,138Z"/><path class="cls-5" d="M526.93,247.08l37.81,48.62a58.33,58.33,0,0,1-8.76,3.86,28.49,28.49,0,0,1-9.32,1.57,20.66,20.66,0,0,1-16.78-8l-24.16-31.22-11.06-14.28h-5.53v44.34H462.2V177.11h57.36a67.12,67.12,0,0,1,11,.9,31.85,31.85,0,0,1,9.77,3.21,18.73,18.73,0,0,1,6.92,6.16,17,17,0,0,1,2.59,9.61v30.71a17.43,17.43,0,0,1-1.76,8,16.35,16.35,0,0,1-4.8,5.76,24.75,24.75,0,0,1-7.28,3.68,42.24,42.24,0,0,1-9,1.89Zm-37.8-49.76v30.22h22.31a19.64,19.64,0,0,0,8.12-1.64c2.47-1.1,3.68-3.18,3.68-6.25V205c0-3.07-1.22-5.12-3.68-6.16a20.5,20.5,0,0,0-8.12-1.56Z"/><path class="cls-5" d="M632.06,177.11a46.58,46.58,0,0,1,13.74,1.72,20.9,20.9,0,0,1,8.75,5.1,18.18,18.18,0,0,1,4.61,8.46,49.13,49.13,0,0,1,1.3,12q0,17.57-.18,35t-.19,35a12.67,12.67,0,0,1-2.67,8.13,20.39,20.39,0,0,1-6.82,5.5,34.35,34.35,0,0,1-9.13,3.13,48.14,48.14,0,0,1-9.41,1h-29.7a59.47,59.47,0,0,1-9.86-.9,38.23,38.23,0,0,1-9.68-3,21.15,21.15,0,0,1-7.29-5.42,12.6,12.6,0,0,1-2.86-8.46V197a16.52,16.52,0,0,1,2.59-9.53,19.28,19.28,0,0,1,6.82-6.08,32.73,32.73,0,0,1,9.49-3.28,58.88,58.88,0,0,1,10.78-1Zm1.65,84.42V232.46L633.53,205c0-3.28-.85-5.39-2.58-6.32s-4.3-1.39-7.74-1.39c-1.72,0-3.95-.08-6.65-.25a42,42,0,0,0-7.93.25,16.41,16.41,0,0,0-6.64,2.21,6,6,0,0,0-2.77,5.5q0,14.28-.18,28.42t-.18,28.4c0,3.84.92,6.46,2.76,7.89s4.91,2.13,9.22,2.13q4.61,0,8.76.24a27.68,27.68,0,0,0,7.27-.41,8.46,8.46,0,0,0,5-2.87c1.24-1.48,1.85-3.91,1.85-7.31Z"/><path class="cls-5" d="M764.11,196.82v77.53a12.91,12.91,0,0,1-2.86,8.54,20.6,20.6,0,0,1-7.29,5.5,36.13,36.13,0,0,1-9.68,2.87,64.94,64.94,0,0,1-9.87.82h0q-14.57.33-29,.17t-29-.17V176.95h57.55a65,65,0,0,1,10.79.91,31.71,31.71,0,0,1,9.76,3.2,19.51,19.51,0,0,1,7,6.16,16.51,16.51,0,0,1,2.67,9.61Zm-60.86.33v26.6h34.3V208.48a22.68,22.68,0,0,0-.55-5.42,7.26,7.26,0,0,0-1.94-3.46,8.36,8.36,0,0,0-4-1.88,31.44,31.44,0,0,0-6.65-.57Zm34.49,66.36V245.27H703.25V272h17.7c1.86,0,3.75,0,5.72-.08a21,21,0,0,0,5.44-.82,8.68,8.68,0,0,0,4.05-2.47,7.47,7.47,0,0,0,1.57-5.17Z"/><path class="cls-5" d="M839.36,177.11a46.53,46.53,0,0,1,13.74,1.72,20.94,20.94,0,0,1,8.76,5.1,18,18,0,0,1,4.61,8.46,49.12,49.12,0,0,1,1.29,12q0,17.57-.18,35t-.18,35a12.67,12.67,0,0,1-2.67,8.13,20.43,20.43,0,0,1-6.83,5.5,33.93,33.93,0,0,1-9.13,3.13,48.06,48.06,0,0,1-9.4,1h-29.7a59.22,59.22,0,0,1-9.85-.9,38.08,38.08,0,0,1-9.69-3,21.19,21.19,0,0,1-7.3-5.42,12.65,12.65,0,0,1-2.85-8.46V197a16.58,16.58,0,0,1,2.58-9.53,19.3,19.3,0,0,1,6.83-6.08,32.64,32.64,0,0,1,9.49-3.28,58.74,58.74,0,0,1,10.78-1ZM841,261.53V232.46L840.83,205q0-4.92-2.58-6.32t-7.75-1.39c-1.72,0-3.93-.08-6.64-.25a42,42,0,0,0-7.93.25,16.46,16.46,0,0,0-6.65,2.21,6,6,0,0,0-2.76,5.5q0,14.28-.18,28.42t-.19,28.4c0,3.84.92,6.46,2.78,7.89s4.92,2.13,9.22,2.13q4.61,0,8.75.24a27.84,27.84,0,0,0,7.29-.41,8.52,8.52,0,0,0,5-2.87c1.22-1.48,1.84-3.91,1.84-7.31Z"/><path class="cls-5" d="M956.94,198.79H934v73.43a17.67,17.67,0,0,1-2.12,8.95,16.88,16.88,0,0,1-5.81,6,29.72,29.72,0,0,1-8.48,3.52,45,45,0,0,1-10,1.4v-93.3H877.89q0-10.17,5.72-15.93t17.9-5.74h55.42v21.67Z"/><path class="cls-5" d="M493.87,44.57c3.55,0,6.37,0,8.46-.09s4-.08,5.58-.08h12.73c3.16,0,7.31,0,12.43.08s11.73.09,19.84.09V162.89H525.38v-48h-35.3v48H462.55V65h.2a16.93,16.93,0,0,1,2.74-9.89,20.21,20.21,0,0,1,7.12-6.33,31.64,31.64,0,0,1,10-3.3,68.87,68.87,0,0,1,11.28-.93Zm31.32,48.18V65.36h-23a29,29,0,0,0-4.46.34A12,12,0,0,0,493.87,67,8.78,8.78,0,0,0,491,69.42a6.27,6.27,0,0,0-1.14,3.89V92.74Z"/><path class="cls-5" d="M632.65,66.88H614.81v75.56a18.32,18.32,0,0,1-2.18,9.21,17.25,17.25,0,0,1-6,6.16,30.73,30.73,0,0,1-8.73,3.64,47.19,47.19,0,0,1-10.25,1.44v-96h-24.1q0-10.48,5.89-16.4t18.41-5.91h44.79V66.88Z"/><path class="cls-5" d="M704.4,44.57a47.81,47.81,0,0,1,14.14,1.78,21.42,21.42,0,0,1,9,5.24,18.62,18.62,0,0,1,4.75,8.7,50.94,50.94,0,0,1,1.32,12.34q0,18.07-.18,36t-.18,36a13.1,13.1,0,0,1-2.76,8.37,21.16,21.16,0,0,1-7,5.66,35.14,35.14,0,0,1-9.38,3.21,49.93,49.93,0,0,1-9.69,1H673.84a61.13,61.13,0,0,1-10.16-.92,39.69,39.69,0,0,1-10-3,21.54,21.54,0,0,1-7.49-5.57,12.94,12.94,0,0,1-2.94-8.71V65a16.93,16.93,0,0,1,2.66-9.8A19.75,19.75,0,0,1,653,49a32.71,32.71,0,0,1,9.77-3.38,59.9,59.9,0,0,1,11.11-1Zm1.71,86.89V101.53l-.19-28.23c0-3.38-.89-5.55-2.65-6.5s-4.43-1.45-8-1.45q-2.67,0-6.83-.26a44.47,44.47,0,0,0-8.16.26,16.72,16.72,0,0,0-6.84,2.29,6.15,6.15,0,0,0-2.85,5.65q0,14.71-.19,29.25t-.18,29.24c0,3.94.95,6.65,2.85,8.1s5.06,2.2,9.49,2.2c3.16,0,6.18.09,9,.25a28.67,28.67,0,0,0,7.5-.42,8.73,8.73,0,0,0,5.11-3c1.27-1.52,1.91-4,1.91-7.52Z"/><path class="cls-5" d="M770.07,44.57h86.74V162.89H833.46V79.73c0-10.91-7-10.82-16.79-10.82v73.53a18.23,18.23,0,0,1-2.19,9.21,17.28,17.28,0,0,1-6,6.16,30.88,30.88,0,0,1-8.74,3.64,47.1,47.1,0,0,1-10.25,1.44V68.74c-10.1-.07-16.79-.05-16.79,10.83v83.32H749.38V72.13c0-11.43,4.89-27.56,20.69-27.56Z"/><path class="cls-5" d="M961.61,138h0ZM950,77.53V130.1a6.31,6.31,0,0,0,3.61,6.17,17.79,17.79,0,0,0,8,1.77h40v24.85H953.82a67.32,67.32,0,0,1-10.24-.84,38.29,38.29,0,0,1-10.17-3,22.1,22.1,0,0,1-7.68-5.57,13,13,0,0,1-3-8.88V65h.19a17.43,17.43,0,0,1,2.65-9.89,19.22,19.22,0,0,1,7.12-6.33,32.75,32.75,0,0,1,10.07-3.3A68.89,68.89,0,0,1,954,44.57h47.64v25H962.36a30.2,30.2,0,0,0-4.46.34A11.91,11.91,0,0,0,954,71.19a8.69,8.69,0,0,0-2.85,2.45A6.25,6.25,0,0,0,950,77.53Z"/><path class="cls-5" d="M903.25,142.45a18.24,18.24,0,0,1-2.18,9.21,17.32,17.32,0,0,1-6,6.16,30.73,30.73,0,0,1-8.73,3.64,47.1,47.1,0,0,1-10.25,1.44V44.57h27.14v97.88Z"/><path class="cls-6" d="M216.87,316.58c89.78,0,162.58,3.35,162.58,7.49s-72.8,7.5-162.58,7.5-162.58-3.36-162.58-7.5,72.81-7.49,162.58-7.49Z"/></svg>