<?xml version="1.0" encoding="utf-8"?>
<!-- Generator: Adobe Illustrator 21.1.0, SVG Export Plug-In . SVG Version: 6.00 Build 0)  -->
<svg version="1.1" id="Layer_1" xmlns="http://www.w3.org/2000/svg" xmlns:xlink="http://www.w3.org/1999/xlink" x="0px" y="0px"
	 viewBox="0 0 347.5 310.9" style="enable-background:new 0 0 347.5 310.9;" xml:space="preserve">
<style type="text/css">
	.st0{fill:#014C45;}
	.st1{fill:#A4CD3B;}
	.st2{fill:#00947A;}
</style>
<g>
	<g>
		<g>
			<path class="st0" d="M120.6,185.2L120.6,185.2c-7.1,0.8-19,2.1-19,2.1l-13.9,2.2c0.4,2.4,0.9,4.8,1.5,7.1c1.5,5.8,2.2,9.2,6,14.4
				c1,1.3,4.8,4.7,6.4,5.5c5.4,2.7,11.2,3.6,17.4,2.1c7.1-1.8,11.6-5.8,14.8-12.2c3.4-6.9,4.8-14.9,4.7-21.7c0-0.7,0-1.4-0.1-2.1
				L120.6,185.2z"/>
			<polygon class="st0" points="99.8,180.7 91.7,166.5 95.8,165.5 			"/>
			<polygon class="st0" points="107.8,178.7 107.9,160.3 111,161.5 109.6,178.2 			"/>
			<polygon class="st0" points="117.7,178.5 128.7,165 130,170 118.7,179.6 			"/>
		</g>
		<g>
			<path class="st1" d="M125.2,256.9c-1.2-0.5-4.2-3.3-4.6-4.9c-0.1-0.5-0.5-0.9-0.6-1.4c0,0,0.1-0.2,0.1-0.3
				c-0.1-0.5-0.4-0.7-0.5-0.9c0-0.1,0-0.4,0-0.7c0-0.1-0.3-0.2-0.4-0.4c-0.1-0.2,0.1-0.7-0.1-0.9c-0.2-0.9-0.5-1.9-0.3-2.8l-0.1-0.5
				c-0.2-0.6-0.1-0.8,0.1-1.3l-0.1-3.1l0.9-3.3c0.2-0.7,0.1-1.2,0.7-1.6l0.2-0.8l2.1-2.5l1.1-1.2c2.1-1.2,3.2-1.5,6.8-2.5
				c0.2,0.2,0.8-0.1,1.1,0.1c1.9-0.3,4.5,0.5,6,1.3l2.1,1.7c0,0,1.4,1.5,2,2.9l0.1,0.2c0.2,1,1,1.7,1.1,2.8c0.6,2.2,0.8,4.3,0.9,6.8
				c-0.2,0.2-0.5,4.5-1.3,7.7c-0.6,1.5-1.2,2.5-1.8,3.9c0.8,0.5,2.7,3.9,3.1,4.6c0.4,0.6,1.1,1.1,1.3,1.6c0.2,0.2,0.4,0.6,0.7,0.6
				c0.5,1.1,1.4,1.8,1.7,2.6l0.8,0.7c0.1,0.9,3.6,4.3,4,5.5c0.7,0.5,1.3,1.5,2.1,2.2c0.2,0.6,0.9,1.6,1.5,2.3c0.2,0.2,1.2,1,1.4,1.2
				l0.8,1.2l1.1,1.8l1.4-5l0.5-5.5c0.8-0.1,1.6,0,2.3,0.1l4.6,1l-0.7,4.7l-0.3,1.9l-0.8,3.1l-0.2,1.2c-0.4,1.6-0.2,2.9-0.2,3.3
				l3.3,6.8c1.1,1.3,1.1,1.6,1.1,1.8c0.9,1.4,1.7,2.5,2.3,4l0.5,1.9c-1.2,0.3-4.7,2.3-4.7,2.3l-2.8,1.5l-1.1-1.4l-3.4-5.3
				c-0.2-0.1-1.5-2.1-2.1-2.8c-0.6,1.5-3.5,5.2-4.1,6.7c-1.2,1.5-4.2,5.9-4.3,5.9c-0.1,0.6-0.8,1-1.5,1.4c-0.6,0.4-1.5,1-1.9,1
				c-0.4,0.6-1.8,0.6-2.3,0.8l-0.8,0.3c-0.4,0.1-0.8,0.1-1.1,0.2c-0.7,0.2-1.2,0.4-2,0.5c-0.5,0.1-1.4,0.3-1.5,0.5
				c-0.3-0.2-0.9,0.2-1.4,0.1l-0.1,0c-0.6,0.2-2.1,0-2.2,0l-0.5,0.1l-3.6-0.2c-0.6-0.1-1.1,0.2-1.6-0.3l-2-0.3c-0.6-0.4-2,0-2.6-0.9
				c-0.7,0.4-4.6-3.6-4.5-4.4c-0.3-0.2-0.4-0.6-0.5-0.8c-0.1-0.5-0.2-1-0.6-1.3c0-0.1,0.1-0.2,0.1-0.2c-0.3-0.3-1.5-3.4-1.4-4.1
				l-0.3-2.8l-0.2-6.8l0.1,0l0.9-9.1l0.5-3.4l0.1-0.3c0.4-0.6,0.2-1.1,0.8-1.6c0-0.5,0.2-1.5,0.6-2c-0.1-0.4,0.2-1.4,0.4-1.6
				c0.2-0.2,0.4-0.1,0.1-0.3c0.2-0.7,1.2-2.8,1.3-3.2c0,0-0.1,0,0-0.1l0.7-0.8l1.4-3.4l1.9-5.6L125.2,256.9z M130.9,272l0,0.5
				c-0.7,0.6-0.4,2-1.1,2.5l-1,2.5c-0.5,1.3-0.7,2.9-1.1,4.2l-0.3,1.3l-1.1,3.2c0.1,0.5-0.2,1-0.3,1.4c-0.2,2-0.5,4.2,0,6.5
				c0.1,0.5,0.2,1,0.5,1.5l1.7,2.7c0.3,0.6,0.6,1.3,1.1,1.7c0.5,0.4,1.3,0.3,1.7,0.9c1.2,0,2.4,0.6,3.8,0.6l6.8-1.9
				c1.7-0.7,3.2-1.5,4.5-2.6c0.1,0,0.2-0.3,0.3-0.3c0.8-0.9,2.5-2.8,3-3.8c1.2-1.6,2.2-3.4,2.4-5.7c-1.9-3.1-4.3-6.1-6.1-9
				c-0.4-0.6-0.7-1.1-0.9-1.6c-0.2-0.2-0.5-0.3-0.5-0.4c-0.6-0.9-6.4-8.9-7.6-11.6c-0.7-0.5-0.9-1.9-1.5-2.3
				c-0.7,1.5-1.4,2.9-1.7,4.4l-0.9,1.5l-0.5,1.2c-0.1,0.2-0.3,0.7-0.4,0.9l-0.3,0.7L130.9,272z M134.3,248.7l0.9-4.2l-0.2-3
				c0.1-0.2,0-0.5-0.1-1c-0.2-0.9-0.6-2-0.7-2.3l0-0.5c-1.5-2.4-2.5-2.7-5.4-3.1c-2.2,0.6-3.8,3.7-3.8,5.9c0,0,0.8,3.2,0.6,3.5
				l1.9,2.7c1.5,0.9,2.4,2.4,3.8,3.5l0.2,0.2c0.3,0.3,1.2,0.7,1.7,1C133.7,250.9,134,249.1,134.3,248.7z"/>
			<path class="st1" d="M184.1,249.1c0.1,0.7,0.6,1.3,0.6,1.9c0.3,0.7,0.6,1.5,1,2.6c0.2,0.3,0.4,0.7,0.3,0.9
				c0.3,0.3,0.6,1.8,0.6,1.9c0.1,0.6,0.6,1.2,0.6,1.9l1.7,4c0.8,2.4,1.6,4.5,2.5,6.9l1.1,3.3l0.3,0.8l0.1-1.9l0.1-0.7
				c-0.2-0.8,0.1-1.1-0.1-1.2l-0.1-0.9l-0.1-0.2c0.1-0.1,0-3.2,0.1-3.5l-0.3-1.4l-0.1-4c0-0.1-0.2-0.8,0-1.2
				c-0.2-0.6-0.2-2.9-0.3-3.6c0.4-0.1,5.7-2.1,5.7-2.1c0.6,0.5,1.8,3.3,1.7,3.6l0.2,0.4c0.5,0.9,1.4,2.7,1.6,3.3l1.8,4
				c0.2,0,0.8,1.5,1,2.1l1.5,2.8l-1.3-5.5c-0.2-0.6-0.3-2.3-0.3-2.5l-0.4-1.8c-0.2-0.4-0.3-0.7-0.2-1.1c-0.3-0.3-2.1-8.7-1.9-9.3
				l-0.7-3.5l1.1-0.3c0.3-0.1,0.9-0.4,0.9-0.2l1.5-0.4c0.3,0,1.2-0.3,2.8-0.7l0.6-0.2c0.3,0.4-0.1,0.4,0,0.9l0.6,2.9l0.2,2.6
				c0.4,1.8,0.3,3.5,0.6,5.3c0.1,0.8,0.8,4.1,0.7,4.7c0.5,1.7,1.5,7.5,2.1,10.1c0.1,0.6,1.2,6,1.4,6.8c0.1,0.7,0.2,1.4,1,5.3
				c0,0.5,0.2,1,0.3,1.6c0.1,0.7,0.3,1.5,0.1,2.1l-0.2,0.7c-0.6,0-2.7,0.6-2.7,0.6c-1.3,0.3-2.3,1-3.7,1.1c-0.1-0.3-1.7-3.6-2.4-4.8
				c0.1-0.1-2.4-5.1-2.7-5.7c-0.1-0.6-2-4.1-2.1-4.4l-0.7-1.7c-0.2,0-0.2-0.6-0.8-1.8c0,0-1.6-3.5-1.5-3.4l0.3,2.2l0.4,2.7l1.4,7.9
				l0.5,3.3l0.1,2.1l0.2,0.7l0.1,1.8c0.3,0.1,0.1,0.5,0.1,0.7l0.6,2.6l-1.8,0.5l-4.1,1.2l-1.9,0.6c0-0.3-0.7-1.8-0.6-1.9l-1.3-3.9
				c-0.4-0.8-0.7-1.5-0.9-2.3c-0.2-0.2-0.2-0.6-0.4-0.8l-0.5-1c-0.2-0.4-0.8-1.4-0.9-2.2l-0.9-2.3c-0.1-0.4-1.7-4.1-2.3-5.1
				c-0.1-0.5-0.3-0.8-0.3-0.8c-0.1-0.4-0.3-0.8-0.5-1c-0.2-0.6-0.4-1.3-0.7-1.8c0-0.1-0.2-0.3-0.3-0.4l-0.2-0.6
				c-0.5-1-0.8-2-1.2-3.1l-0.5-1c-0.3-0.7-0.4-1.1-0.7-1.7l-1.3-3.3l-0.4-0.8l-0.8-2.7c-0.3-0.3-0.3-0.8-0.5-1.2
				c-0.5-1-1.2-2.8-1.5-3.7C177.5,250.6,183.7,249.1,184.1,249.1z"/>
			<path class="st1" d="M239.4,268c0.4,0.8,0.9,1.7,1.3,2.6l4,7.9c-0.5,0.4-1.9,0.7-2.5,0.8l-2.8,1c-0.1-0.1-1.3-1.9-1.6-2.9
				c-0.1,0-0.8-1-0.8-1.3c-0.2,0-1.3-1.6-1.3-1.8l-0.7-1.1l-0.5-0.9c-0.1-0.1-0.7-1.4-0.7-1.5l-0.9-1.3l-1.1-2l-0.3-0.7l-0.5-0.7
				c-0.3,0-1.2,0.6-1.6,0.8l1.3,5.4c0.3,0.6,0.6,2.2,0.7,3c0.4,1.1,0.7,2.3,1,3.4c0.2,0.6,0.7,2.5,0.8,2.7c0,0-0.1,0.1-0.2,0.3
				c-0.2-0.1-4.3,1.1-5.8,1.5c0-0.2-0.4-1.4-0.4-1.5l-0.7-1.8l-2.4-7l-0.9-3.6c0,0-0.5-2.4-1-3.6l-0.7-2.1l-1-3.9l-1-2.7l-1.4-5.5
				l-0.4-1.1l-3.1-10.4c0.5-0.3,1.9-0.9,2.8-1.1c1.7-0.7,3.5-0.9,5.4-1.3c0.4-0.1,1.5-0.1,2.5-0.4l1-0.1l0.8,0l2.2-0.2l0.8,0.1
				c0.3,0.2,0.7,0.4,1,0.4c1,0.3,1.2,0.2,1.5,0.5l1.3,0.4c0.3,0.2,0.7,0.2,0.8,0.6c0.4,0.1,0.8,0.3,0.9,0.5l1.1,0.6l0.4,0.2l0.9,0.8
				l0.6,0.5l0.8,0.9l0.1,0.1c0.3,0.5,0.7,0.8,0.9,1.4l0.5,0.7c0.2,0.3,0.6,0.9,0.9,1.4l0.3,0.8c0.7,1.1,1,2.8,1.1,4.3
				c0.1,0.5,0.3,1.2,0.1,1.7l-0.7,3.7l-0.6,1.6l-0.8,1.4l-1,1.1c0,0.1-0.9,1.2-0.9,1.2l-0.3,0.2c-0.1,0.2-0.3,0.2-0.3,0.3l-1.3,1.1
				c0.4,0.8,1,1.9,1.2,2.6c0.1,0,0.3,0.5,0.5,0.6C239.1,267.3,239.3,267.6,239.4,268z M235.4,254.4c0-0.7-0.1-1.8-0.2-2.5
				c-0.1-1.2-0.7-2.4-1.1-3.5l-0.4-0.6c-0.3-0.2-0.5-0.6-0.8-0.9c-0.2-0.2-0.4-0.4-0.6-0.6c-0.5-0.2-0.9-0.9-1.4-1.3
				c-0.2-0.1-0.4-0.2-0.5-0.5c-1.5-0.6-3.3-1.4-5-0.9c-0.9,0.2-2.5,0.6-3.6,1.1l0.7,2.4c0.1,0.6,0.2,1.1,0.4,1.7l0.3,0.7l0.3,1.2
				c0.2,0.3,1.5,4.3,1.6,5c0.1,0.2,0.2,0.5,0.2,0.6l2.1,6.3c0.7,0.1,1.9-0.3,2.9-1c0.5-0.4,2.5-1.9,2.8-2.2c0.1-0.1,0.1-0.3,0.4-0.4
				C234.8,257.5,235.3,256.2,235.4,254.4z"/>
			<path class="st1" d="M259.2,271.4c0.2,1.3,0.1,2.8,0.3,4l0.1,0.8l-6.1,1.8c0.1-0.3-0.2-0.8-0.3-1.1c0-0.1,0.1-0.4,0-0.5
				c0-0.7-0.1-1.5-0.2-2.1c-0.3-1.7-0.5-3.5-0.7-5.2l-0.8-6.1l-0.1-0.4l0-0.8c-0.1-0.5-0.2-1-0.2-1.5c-0.1-0.2,0-0.4,0-0.5
				c-0.1-0.4-0.5-2.8-0.4-3.4c0-0.1-0.3-0.9-0.2-1.3c-0.1-0.2,0-0.5,0-0.6c0-0.2-0.1-0.1-0.1-0.2c0.2-0.3-0.2-0.9,0.1-1
				c-0.1-0.3-0.2-0.7-0.1-0.9c-0.3-0.6-0.7-5.8-0.8-5.8l-0.2-0.7c0-0.2,0.1-0.3,0.1-0.6c0-0.7-0.4-1.5-0.3-2.2
				c0-0.1-0.1-0.1-0.1-0.3c0.1-1-0.3-2.5-0.3-3.4c-0.2-0.3-0.1-0.8,0-1.1c-0.2-0.3-0.1-0.7-0.1-0.9c-0.4-0.8-0.2-3-0.7-3.8l0-0.5
				c2.5-1.5,4.1-1.9,6.4-2.4c0.1,0,0.1-0.2,0.3-0.2l3.3,6.2l0,0.1l0.9,1.6c0.2,0.2,3.4,6.5,4.9,9.2c0,0.1,1.5,2.6,1.4,2.9l1.9,3.2
				c0.4,0.4,1.2,1.8,1.1,1.9c0.2,0.2,0.5,0.6,0.5,0.9c0.2,0,0.9,1.3,0.8,1.4c0.7,0.8,1.3,2,1.6,2.8l0.4,0.6l0.5,1.2
				c0.2,0.2,0.2,0.3,0.4,0.4c0.1,0.7,0.6,1,0.9,2c0.2,0,0.3,0.3,0.2,0.5c0.5,0.7,2.3,4.1,2.9,5.1c-0.2-0.1-2.3,0.5-3.3,0.6
				c-1.1,0.1-2.5,0.8-3.5,0.9l-0.3-0.7c0.1,0-0.1-0.3-0.3-0.4c-0.1-0.2-0.1-0.4-0.3-0.4c-0.3-0.5-0.4-1.1-0.8-1.4
				c0.1-0.2-1-1.6-1.4-2.1c0.1-0.4-1.6-2.4-2.1-3.1c-1.7,0.3-4.1,1-5.9,1.6c0,1.5,0.3,2.9,0.4,4.4
				C259.1,270.4,259.4,270.9,259.2,271.4z M257.9,258c0.5-0.1,1.2-0.4,1.7-0.4c0.3-0.1,1-0.3,1.3-0.2c0.2-0.1,0.4-0.1,0.6-0.2
				l-0.5-1c-0.2-0.6-0.5-0.7-0.5-1.3c-0.2-0.1-0.5-0.5-0.5-0.7l-1.9-3.5c-0.1-0.3-1.3-2.6-1.8-3c0,0.8,1,5.3,1.4,7.8
				C257.7,256.6,257.8,257.2,257.9,258z"/>
			<path class="st1" d="M286.2,258.8c0.2,0.9,0.6,2.2,0.9,3.2c0.3,0.9,0.7,1.8,0.8,2.4l0.1,0c0.3,0.9,0.5,1.6,0.9,2.3
				c-0.5,0.1-1,0.5-1.4,0.6c-0.2,0.4-3.8,1.2-3.9,1.2c-0.9-1.5-2.1-4.7-2.2-5.2c-0.2-0.4-0.4-1-0.4-1.5c-0.5-0.8-0.4-1.9-1-2.6
				c-0.1-0.7-1.2-4.5-1.6-5.8l-0.4-1.1c-0.1-0.4-1.5-3.7-1.5-4.2c-0.1-0.4-0.7-2.3-0.9-3.5c-0.4-0.6-0.3-1.5-0.7-2.1
				c-0.1-0.4-1-3-1.7-5.1c-0.1-0.7-0.8-3.3-0.8-4c-0.1-0.2-0.4-1.5-0.2-1.9l-0.3-1.2l-1.2-3.5l-0.3-0.7l-0.2-0.9
				c0,0,2.3-0.5,2.4-0.5c0.8,0,1.8-0.3,2.5-0.4c1.7-0.2,3.5-0.9,4.9-0.7c0.1-0.1,2.5,0.3,3.6,0.3l3.4,1c0.4,0.2,0.7,0.6,1.1,0.7
				c0.7,0.4,1.3,0.8,1.9,1.3c1,0.8,1.6,1.9,2.4,2.9c0.6,1.2,1.2,2.6,1.6,4c0.6,1.9,0.6,4.2,0.7,6.3c-0.2,0.3-0.5,2.1-0.7,2.2
				c-0.1,0.6-0.9,2.5-1.3,2.8c-0.3,0.6-0.7,1.2-1.1,1.7c0,0.2-0.7,1-0.8,1.1c-0.9,0.9-1,1.4-1.9,2.2l-1.6,0.9l-2.6,1.6
				c0.4,1.5,0.6,3.1,1.1,4.4C285.9,257.6,286.1,258.2,286.2,258.8z M279,236.6c0.3,0.8,1.3,4.8,1.3,4.9l0.6,1.4l0.4,1.7
				c0.2,0.6,0.7,1.7,1,2.8c0.2,0,0.4,0.1,0.5-0.1c0.5-0.1,1.5-0.9,1.7-1.1l0.9-0.8c0.4-0.4,0.7-0.8,1-1.1c0.9-1.6,1.1-2.9,1.4-3.5
				c0.1-0.9,0.1-1.9,0-3.1c-0.4-1.3-0.9-2.2-1.5-3.5c-0.8-1-1.6-1.9-2.3-3c-0.5-0.3-0.8-0.7-1.2-0.9l-1.2-0.3
				c-0.3-0.1-1.4-0.2-2.4,0.1l-2.2,0.2c0,0.2,1.4,5,1.5,5.1C278.8,235.8,278.9,236.1,279,236.6z"/>
			<path class="st1" d="M321.4,224.8c-0.4,0.8-0.8,1.6-1.3,2.3c-0.1-0.4-0.8-0.9-1.3-1.3c-0.5-0.6-0.9-1-1.5-1.5
				c-0.9-0.6-1.2-1.2-2.1-1.6c-0.1-0.3-1.1-0.5-1.3-0.7c-0.5,0-0.9-0.4-1.5-0.5c-0.8,0-1.9-0.1-2.6,0.3c-1.6,0.6-3,1.5-3.5,2.9
				c-0.3,0.9,0,3.9,0.8,4.8c0,0.3,0.3,0.4,0.3,0.7c0.2,0.3,0.6,0.7,0.7,0.9c0.1,0.1,0.6,0.4,0.8,0.7c0.2,0.1,0.3,0.1,0.5,0.3
				c2.1,1.7,3,2.1,5.3,3.6c0.7,0.5,4.9,2.9,5.3,2.9l2.3,1.3c0.2,0.3,0.8,0.6,0.9,0.9c0.9,0.8,1.9,1.5,2.4,2.7c0.4,0.4,0.6,1,0.9,1.6
				c0.3,0.7,0.8,1.3,1,2c0.1,0.4,0.1,0.8,0.2,1.3l-0.1,0c0.1,0.2,0,0.5,0,0.8c0,0.1,0.2,0.3,0.1,0.4c0,0.2,0.1,0.1,0.1,0.2
				c-0.1,0.1,0,0.2,0,0.3c-0.1,0.1,0,0.2-0.1,0.3c-0.1,1-0.4,1.6-0.5,2.6c-0.2,0.3-0.2,0.7-0.5,1l-0.8,1.4c-0.3,0.1-0.9,0.9-1.1,1
				c-0.3,0.5-0.8,1-1.4,1.3c-0.5,0.4-1.1,1-1.8,1.2c-0.3,0.2-0.7,0.4-1.1,0.6c-0.8,0.4-1.9,0.6-2.6,0.7c0,0-0.1,0-0.2,0
				c-1.7,0.5-2.4,0.4-3.3,0.4l-1.7-0.3c-0.7-0.2-1.7-0.3-2.4-0.5c-0.2,0-0.4,0.1-0.4-0.1c-1.4,0.1-2.2-0.5-3.1-1
				c-1.1-0.9-4.8-3.9-5.1-4.2c-0.4-0.3-2.3-2-2.7-2.4l0.8-0.9c0.1-0.4,0.7-0.9,0.8-1.4l0.3-0.2l0.2-0.2c0.3-0.3,0.3-0.9,0.7-1
				l0.8-1.3l1,1.5c0.8,0.9,1.7,1.7,2.6,2.4l2.9,2.4c2.9,1,4,1.6,5.1,1.6l2.6-0.2l1.2-0.4l0.1-0.1c0.6-0.4,1.3-0.9,1.5-1.6
				c0.1-0.1-0.1-0.2,0-0.3c0-0.2,0.1-0.3,0.2-0.6c0.1-0.6,0.1-1.2-0.1-1.9c-0.3-1.1-1-2.1-1.7-2.7c-0.4-0.5-1-0.8-1.3-1.1
				c-0.9-0.9-0.4-0.2-1.3-1c-1.1-0.8-2-1.7-3.4-2l-1.3-0.5c-0.5-0.4-1.7-0.6-2.2-1.1l-4.5-3.1c-0.6-0.7-1.4-1.7-1.9-2.7l-0.6-0.9
				c-0.3-0.2-0.6-1.4-0.7-1.8c-0.3-0.7-0.4-1.5-0.3-2.2c-0.3-1.7-0.2-2-0.4-2.4l-0.2-2.9l0.1-0.9l0.5-1.8c0.1-0.3,0-1,0.2-1.4
				l0.1-0.7c-0.2-0.1,0.1-0.9,0.1-1l0.5-0.9l0.5-0.7c0.1-0.3,0.5-0.5,0.5-0.9c0.4-0.1,1.5-1.1,1.6-1c0.4-0.3,0.8-0.7,1.5-0.8
				l1.4-0.7c1.6-0.4,2.7-0.5,3.5-0.6l0.4,0.2c0.5-0.1,1-0.1,1.3,0.1c0.5,0,1.3,0.1,2.7,0.7c0.8-0.1,1.5,0.4,2,0.7
				c0.8,0.6,1.5,1.1,2.2,1.7c0.4,0.1,0.8,0.7,1.2,1l1.7,1.7c0.9,0.9,1.3,1.8,1.3,1.8C323.1,222.6,322.2,223.5,321.4,224.8z"/>
		</g>
		<g>
			<path class="st2" d="M53.5,155c-2.5,2.1-6.7,3.7-10.3,4.5l-0.6,0.2c-3.5,1-7.1,1.4-10.1,1.4c-3.5-0.4-8.8-3.1-9.9-4
				c-0.2-0.6-3.7-4.4-4.7-6.7c-0.1-0.3-0.8-2.1-0.8-2.1c-0.4-0.9-0.8-1.7-1-2.7c-0.3-1.2-0.9-2.5-1.3-3.9c-0.2-0.6-0.3-1.1-0.4-1.7
				c-0.2-1.6-1-3.5-1.4-5c0,0-1.3-5.3-1.3-6.6c-1-4.1-1.4-4.8-1.4-5.1c-0.1-0.5-0.1-1.3-0.6-2.3c0.2-0.5,0-0.8-0.4-1.5
				c0.2-0.4-0.5-2-0.5-2c-0.3-1.1-0.8-1.9-1-2.8c-0.2-0.8-0.4-1.5-0.5-2.1L5.6,107c-0.3-1.1-0.8-1.9-0.5-2.8c-0.2,0-0.7-1.6-0.6-1.1
				c0.1-0.3,0-0.6-0.1-0.9l-1-3.5c-0.6-1.1-0.7-2.1-1.4-2.9c0,0-1-2.8-0.8-3.7l-0.9-1.9c0-0.5,0.1-1-0.2-1.4L0,87.3
				c-0.2-0.8,0.3-2.7,0.5-4c-0.3-0.4,0.2-0.5,0.1-1l0.2-0.5L4.4,76c0.4-0.4,1-0.7,1.3-1.1L7,73.8c0.5-0.1,2.1-0.8,1.9-1.4
				c0.3,0.1,3.5-1.5,4.3-2l1-0.4c1.4,0,2.9-0.7,4.7-1.2c1.6-0.9,6.7-1.7,8.7-1.4c1.2,0.2,1.5,0.1,5.2,1.6c0.8,0.5,2.5,2.3,2.7,2.4
				c0.6,1.1,1.1,2,1.8,3.3c0.5,1.3,1.3,2.6,1.8,3.9l1,2.2c0.3,1.2,0.6,2.3,1,3.5c0.3,0.4,0.5,0.7,0.6,1.1c0.1,0.5,0.3,0.7,0.5,1.2
				c0.3,2,1.5,3.3,2,5c-0.1-0.5,0.8,1.9,0.8,2.1c0.3,0.7,0.6,1.8,1.2,2.4l1.5,6.2l-1.3,0.8l-3.3,0.8c-2.3,0.6-2.7,0.7-4.6,0.8
				l-3.2,0.8c-0.4-0.2-1.3-1.8-1.4-2.5c-0.4-0.9-0.5-1.8-0.8-2.4l-0.7-2.1c0-0.8-2.1-7.9-2.1-7.9c-0.2-0.9-1.6-4.6-1.6-4.6l-0.1-0.5
				c-0.4-1-1.1-1.7-1.7-2.3c-1-0.9-2.4-1.2-3.9-1c-0.9,0.2-3.6,1.2-4,1.3c-0.9,0.4-1.8,0.6-2.5,1.1c-1.6,1.5-2.5,3.7-1.6,6.4
				c-0.6,0.2,0.4,4.7,0.9,6.1c0.2,0.6,1.5,4,1.7,5.1l0.4,1.5c0.1,0.5,0.3,0.7,0.5,1.2c0.1,0.5,0.1,1.3,0.1,1.3
				c0.3,1.9,0.9,3.6,1.3,5.2c0.6,2.3,1.1,4.4,1.8,6.5l3.6,11.1c0.4,1.7,1.3,3.9,2,5.6c0.2,0.8,0.3,1.4,0.6,1.9l0.1,0.3
				c0.1,0.3,0.5,1.2,0.6,1.3l0.1,0.5c0.1,0.3,0.2,0.8,0.5,1.2l0.3,1.1c0,0,1,3.3,1.6,4c0.3,1.1,1.5,2.7,2.6,3.2
				c0.6,0.3,1.1,0.4,1.7,0.2l0.8-0.2c2.5-0.5,5-1.9,6.7-3c0.7-1,1.2-2.2,1.5-3.6l-0.1-0.5c-0.2-0.6-0.5-1.2-0.3-2l-0.3-1.7
				c-0.8-0.6-1.4-5-2-7.6c-0.5-1.3-1.1-2.3-1.1-3.6c-0.2-0.1-0.3-1.4-0.8-1.9l-2-5.6c0.5-0.8,4.9-2.3,6.2-2.8l1.7-0.4
				c1.4-0.3,2.6-1.3,3.8-0.9c1.4,2.5,2.1,5.9,3.1,8.7c0.5,1.3,1,2.8,1.4,4.3c0.3,1.2,0.4,1.5,0.9,3.5c0.7,4,2.4,7.6,3.3,11.4
				c0.3,1.1,0.4,2.2,0.5,3.3c0,0,0.3,1.9-0.1,2.1c0.2,0.8-0.2,1.3-0.5,2c0.2,0.3-1.6,3.3-1.9,3.5C55.3,153.8,54.5,154.5,53.5,155z"
				/>
			<path class="st2" d="M105.5,118.9c0.8,1.8,1.9,3.6,2.8,5.4l8.3,16.5c-1.1,0.8-4,1.5-5.2,1.8l-5.9,2.1c-0.2-0.3-2.8-4-3.5-6.1
				c-0.2,0-1.6-2-1.6-2.7c-0.5,0-2.6-3.4-2.7-3.7l-1.4-2.4l-0.9-1.9c-0.2-0.1-1.4-2.9-1.4-3l-1.8-2.6l-2.3-4.1l-0.7-1.4l-1-1.4
				c-0.6,0-2.6,1.3-3.3,1.6l2.6,11.3c0.6,1.3,1.3,4.5,1.6,6.2c0.9,2.4,1.4,4.8,2.1,7.1c0.5,1.2,1.5,5.3,1.7,5.6c0,0-0.1,0.2-0.3,0.6
				c-0.4-0.2-9,2.4-12.2,3.2c0.1-0.3-0.9-2.9-0.8-3l-1.4-3.8l-5.1-14.6l-1.9-7.6c0,0-1.1-5.1-2-7.6l-1.6-4.3l-2-8.1l-2-5.6
				l-2.8-11.4l-0.9-2.2l-6.4-21.9c1.1-0.6,4.1-1.8,5.9-2.3c3.7-1.6,7.3-1.8,11.3-2.6c0.8-0.2,3.2-0.3,5.1-0.8l2.1-0.2l1.6,0.1
				l4.6-0.3l1.7,0.2c0.6,0.3,1.5,0.8,2.1,0.8c2.1,0.6,2.5,0.5,3.2,1.1l2.6,0.8c0.6,0.3,1.4,0.5,1.7,1.2c0.8,0.1,1.6,0.6,1.9,1
				l2.4,1.2l0.8,0.5l1.9,1.6l1.3,1.1l1.7,1.8l0.2,0.3c0.6,1,1.6,1.7,1.9,2.9l1,1.5c0.5,0.5,1.3,1.8,1.9,2.9l0.6,1.6
				c1.4,2.4,2.1,5.8,2.2,9c0.3,1.1,0.6,2.4,0.2,3.5l-1.5,7.6l-1.3,3.4l-1.7,2.9l-2,2.3c0,0.2-1.8,2.5-1.8,2.5l-0.5,0.5
				c-0.2,0.4-0.7,0.5-0.6,0.6l-2.7,2.3c0.8,1.8,2.1,4,2.5,5.5c0.3-0.1,0.7,1,1,1.2C104.9,117.4,105.2,118.2,105.5,118.9z M97.1,90.6
				c0-1.4-0.1-3.7-0.5-5.2c-0.3-2.5-1.4-5-2.3-7.4l-0.8-1.3c-0.6-0.5-0.9-1.2-1.7-1.8c-0.4-0.4-0.8-0.8-1.3-1.3
				c-1.1-0.4-1.9-1.9-3-2.8c-0.4-0.2-0.9-0.4-1.1-1c-3-1.2-6.8-2.8-10.5-1.9c-2,0.5-5.3,1.3-7.5,2.3l1.6,5c0.3,1.2,0.4,2.3,0.9,3.7
				l0.7,1.4l0.6,2.4c0.5,0.5,3.1,9.1,3.4,10.5c0.1,0.5,0.4,1,0.5,1.3l4.4,13.3c1.5,0.1,3.9-0.6,6.1-2.2c1.1-0.8,5.1-4,5.9-4.7
				c0.3-0.2,0.3-0.7,0.8-0.8C95.8,97.1,96.9,94.4,97.1,90.6z"/>
			<path class="st2" d="M142.6,119.7c0.5,2.4,0.1,5.3,0.6,7.7l0.6,6.9l-11.8,3.5c0.2-0.5-0.7-6.8-0.9-7.4c-0.1-0.3,0.1-0.8,0-1
				c0-1.3-0.1-2.8-0.4-4.1c-0.7-3.3-0.9-6.7-1.3-10.1l-1.4-11.8l-0.2-0.7l-0.1-1.5c-0.1-1-0.3-2-0.4-2.9c-0.1-0.4,0-0.7,0-1
				c-0.2-0.8-1-5.4-0.7-6.5c0-0.1-0.6-1.8-0.3-2.4c-0.2-0.4-0.1-0.9,0-1.2c0.1-0.3-0.2-0.1-0.2-0.4c0.5-0.6-0.4-1.7,0.1-2
				c-0.3-0.5-0.3-1.4-0.1-1.7c-0.6-1.2-1.4-11.1-1.4-11.2l-0.3-1.4c0-0.5,0.1-0.6,0.1-1.2c0-1.3-0.7-2.9-0.6-4.2
				c0-0.1-0.2-0.2-0.3-0.5c0.1-2-0.6-4.9-0.6-6.5c-0.5-0.6-0.1-1.6-0.1-2.1c-0.3-0.7-0.2-1.3-0.1-1.7c-0.7-1.6-0.4-5.8-1.4-7.2
				l0.1-0.9c4.8-3,7.9-3.6,12.3-4.7c0.3-0.1,0.2-0.3,0.7-0.3l6.4,11.9l0.1,0.3l1.6,3c0.4,0.4,6.5,12.5,9.4,17.7
				c0,0.1,2.9,4.9,2.7,5.6l3.6,6.2c0.8,0.8,2.3,3.4,2.1,3.6c0.4,0.3,1,1.2,0.9,1.7c0.5,0,1.8,2.5,1.6,2.7c1.3,1.6,2.4,3.8,3.1,5.3
				l0.7,1.2l1,2.3c0.4,0.4,0.5,0.6,0.8,0.7c0.2,1.4,1.1,2,1.7,3.9c0.3,0.1,0.6,0.6,0.4,0.9c0.9,1.3,7,12.6,8.1,14.5
				c-0.3-0.2-4.5,1-6.4,1.1c-2,0.2-4.8,1.5-6.7,1.7l-3.1-5.9c0.3-0.1-0.3-0.5-0.5-0.8c-0.2-0.4-0.2-0.8-0.6-0.7
				c-0.6-1-0.8-2.2-1.6-2.7c0.2-0.3-2-3.1-2.6-4c0.1-0.8-3.1-4.6-4-6c-3.3,0.7-7.8,1.9-11.3,3.1c0,2.8,0.6,5.5,0.8,8.4
				C142.2,117.7,142.9,118.7,142.6,119.7z M139.9,93.9c1-0.1,2.3-0.7,3.2-0.8c0.6-0.1,2-0.5,2.4-0.5c0.4-0.1,0.8-0.2,1.2-0.5
				l-0.9-1.9c-0.4-1.1-0.9-1.4-1-2.4c-0.3-0.2-1-0.9-0.9-1.3l-3.6-6.7c-0.3-0.5-2.4-5-3.4-5.8c-0.1,1.5,1.9,10.2,2.7,15.1
				C139.5,91.2,139.8,92.3,139.9,93.9z"/>
			<path class="st2" d="M242.9,98.7l0-0.6l-4.5-13.2l-3.2,1c-0.2,0.1-33.2,12.3-35,12.5l-1,0.1l2.9-10l0.4-0.4l0.1-0.9l0.9-2.5
				l0.4-0.5l1.4-3.7l0.5-1.8c-0.1-0.3,0-1,0.6-2.3c0.5-1,0.8-1.5,1.1-1.7c0.2-0.8,0.8-2.5,2.7-7.2c1.4-3.6,3.5-9,3.6-10l-0.1-0.2
				l2.3-4.8l4.9-11.4l2.3-6.3c-0.6-0.8-1.4-3-3.4-8.8c-0.2-0.5-0.4-1-0.5-1.5l-0.2,0.1c-0.6,0.3-1.4,0.4-2,0.5
				c-0.7,0.1-1.3,0.2-1.8,0.5l-0.2,0.1l-27,7.7c-0.3,0.1-0.7,0.2-0.8,0.3l-0.1,0.1l-0.2,0c-0.7,0.1-2.8,0.8-5.1,1.5
				c-3.4,1-7.5,2.3-9.7,2.7l0.9,2.4l-0.1,0.1c0,0.1,0.1,0.2,0.1,0.3c1,2.7,2.7,7.2,3.1,7.8l0.1,0.1l1.3,1.4c3.4-0.8,6.6-1.6,9.7-2.5
				c4.1-1.1,7.9-2.1,12.1-3l0.8-0.2l0,0.8c0,0.5-0.2,0.9-0.4,1.3c-0.1,0.1-0.1,0.2-0.1,0.3l0.2,0.3l-0.2,0.2
				c-0.1,0.3-0.3,0.4-0.5,0.5l-3.7,11.2l-1.6,6l-2.4,7.7l-4.6,13.9l-3.7,10.3l-1.7,4.5l1.3,2.2l3.1,8.2l0.2,0.1l0.1,0.3
				c0.2,1.1,0.6,1.9,1,2.6c0.3,0.6,0.6,1.1,0.7,1.8l5.5-2l28.9-9.3L242.9,98.7z"/>
			<path class="st2" d="M230.2,13.6c1.3,0,8.6-2,10-2c0.3,0.7,1,0.8,1.2,1.7c0.8,0.9,1.7,1.6,2.2,2.6c2.4,2.1,3.7,4.7,6.2,6.7
				l0.9,1.7c0.4,0.2,3,3.5,3,3.5c0.7,0.8,1.5,1.5,2,2.5l4.1,4.5l3,3.8l2,2.5l4.1,5.9c-0.2-0.7,0.4-1.5,0.2-2.4l0.4-4.2
				c0.1-0.2,0-0.6,0-0.8l0.2-2.2c-0.3-0.4-0.5-4.1,0-5.8l0.1-1.3c-0.4-1.5-0.3-4.2-0.2-5.9l0.1-1l-0.1-0.9l0-0.8l0-1.3l-0.1-0.9
				c0.1,0,0.1-2.1,0.1-2.2l-0.1-3.7l0.2-1.8c-0.1,0-0.2-5.4-0.4-5.9l-0.7-2.2l6-1.5c2.4-0.4,2.8-0.8,3.6-0.7l4.2-1.5
				c0.3,1.3-0.3,2.4-0.4,3.5c-0.1,1,0,2,0,3c-0.1,1.3-0.3,2.6-0.3,3.8l-0.1,2.8l0.1,2.3c0,0.6,0.2,1.5-0.2,1.9
				c0.2,3.9-0.5,15.5-0.9,17.1l0.1,0.3c0.1,0.4-0.1,1-0.1,1.4c-0.1,1.3,0,2.7-0.1,3.9c0,1.7,0,3.3-0.2,5c0,1.1-0.1,2.2-0.1,3.3
				l-0.3,2.7c0.2,0.9-0.2,1.8-0.3,2.6c-0.1,2.7,0.1,5.6,0.1,8.4c0.1,0.4-0.3,0.8,0,1.3c0.4,1.5,5.3,15.1,5.6,17.5l3.6,10.2
				c0.1,0.4,0.1,1.1,0.1,1.5c-0.4,0.3-11.7,3.4-12.3,3.2c-0.6-2.4-1.9-4.4-2.2-6.5c-0.4-0.2-0.8-1.5-1-2c-0.5-1.4-1-2.1-1.2-3.5
				l-2.7-7.1c-0.3-0.4-1.7-3.2-1.6-4.1c-1-1.5-1.1-5.2-2.1-7.1c-2.7-3.9-5.5-7.1-7.9-11.2c-2.6-3.1-5.2-6.4-7.5-10.2
				c-2.6-3.6-5.2-7.2-8-10.7c-4.4-6.4-9.7-13.4-14.2-19.5L230.2,13.6z"/>
		</g>
		<g>
			<path class="st2" d="M31.8,182.8c1.3-0.8,3.8-1.4,5.8-1.9l4.8-1.5c0.6,0.5,2.5-0.3,2.6-0.2c0.7-0.5,1.6-0.3,2.3-0.6
				c0,0,1.4,0.1,1.5-0.2c1.8,0,4.1-0.4,5.7,0c0.4-0.1,1-0.1,1.5-0.1c0.3,0.1,0.6,0,0.9-0.1c0.5,0,1.3,0.4,1.8,0.5
				c0.7,0.1,1.2,0,1.5,0.4c0.3-0.1,0.7,0.1,0.9,0.4c0.9-0.1,1.8,0.5,2.2,0.7c1,0.2,2,1.1,2.9,1.3c0.6,0.6,1.2,1.1,1.8,1.2
				c0,0.5,3.1,2.8,3.9,3.5c-0.1,0.3,0.1,0.6,0.4,0.5c0.4,0.5,1.7,2.4,2.2,3.1l0.1,0.3c0.4,0.8,1.1,1.4,1.2,2.3c1,1,1.3,2.9,1.5,3.5
				c0.7,0.1,0.7,1.7,1.2,2.5l0.3,1.9c0.1,0.3,0.3,0.5,0.3,1.2l0.4,1c-0.2,1,0.2,2,0.2,2.9l-0.1,0c0.4,0.4,0,1.2,0.3,1.3
				c-0.4,0.4-0.1,0.8,0,1.2l0,1.4c-0.4,0.3,0.1,1-0.2,1c0.2,0.7-0.2,1,0,1.7c-0.4,0.1-0.4,1-0.6,1.8c0.2,0.1-0.5,1.7-0.5,1.7
				c-0.6,0.1-0.3,1.2-1.2,1.5c0.1,0.4-1,1.6-1.2,2.1c-0.8,0-0.5,0.9-1.3,1.1c-0.1,0.3-1.2,2.1-2,2.3c-0.1,0.3-0.7,0.5-0.5,0.9
				c-1.2,0.8-1.4,1.3-2.8,1.9c-0.5,1.2-2.1,1.9-3.1,2.3c0.4,0.5,1,0.4,1.7,0.2c0.7,0.4,2.4,0.5,2.4,0.5c1.3,0.4,3.6,0.3,3.8,1.1
				c1.1,0,1.8,0.5,2.4,1.1c1.4,0.6,6.5,4.4,6.7,4.6c0.8,1.3,1.8,2.5,2.6,4.1c1,1,0.8,2,1.5,3.1c0,0.8,0.3,2.5,0.4,3.4
				c-0.4,0.7,0,2.3-0.7,2.8l-0.5,1.2c-0.5,0.3-2.7,3.9-3.8,5.1c-0.8,0.5-1.2,0.8-1.7,1.2c-0.3,0.1-1.8,1.2-1.8,1.2
				c-0.5,0-1.1,1.3-1.5,0.8c-0.6,0.6-1.9,1.6-2.7,1.6l0,0.1c-0.5,0.3-0.8,0.6-1.4,0.6l-0.4,0.3c-0.5,1-1.8,0.8-2.5,1.6
				c-0.5,0-4.3,1.8-9.1,3c-1.2,0.1-2.9,0.9-3.9,0.5c-0.3,0.1-0.8,0.4-1.2,0c-0.3,0.2,0.2-1.1-0.7-2.1c0.1-0.2,0-0.8,0.2-1.1
				c-0.9-1.8-1.8-4.6-2.2-7.5c-0.7-0.9-0.9-2.4-1.2-3.5c-0.9-2.5-1.8-5.2-2.2-7.7c-0.9-1.6-2.1-7.2-2.3-7.6l-0.1-0.3
				c-0.7-0.9-0.3-2.5-1.1-3.7l-0.3-1.3c0.3-0.8-0.4-2.1-0.6-3.1c-0.1-1-0.4-2.2-0.6-3.2c-0.4-0.5-0.7-2.1-0.8-2.6
				c-0.3-1-0.9-1.9-0.7-2.9c-0.1,0-0.6-1.1-0.3-1.2c-0.6-0.6-0.3-1.3-0.8-2c0,0-0.3-0.5-0.2-0.7c-0.5-2.5-1.5-5.5-2.5-8.1l-0.1-0.6
				c-0.1-1.2-0.9-1.9-0.9-3c-0.5-0.9-0.6-1.8-1-2.8c0-0.1-0.2-0.3-0.3-0.5c-0.5-2.2-1.6-3.9-2.5-6.3c-0.1-1-0.7-1.7-1.1-2.5
				c0.2-0.5-0.2-0.9-0.3-1.3c-0.8-1.8-1-3.6-2.1-5.3L31.8,182.8z M48.8,204.7c0.1,0.3,0.4,0.5,0.2,0.7c1,1.7,1.4,3.7,2.2,5
				c-0.3,0.1-0.1,0.2-0.1,0.2c0.1,1,0.9,2.2,1.3,3.4l0.9,3.8c0.4,1,0.8,2,1,2.8c-0.1,0.3,0.2,0.7,0.3,1c0.7-0.3,1.8-0.9,2.2-1.5
				c1.6-1,3.7-3.1,5.1-4.3c0.7-0.3,1.4-1.7,1.5-2.7c0.2,0.1,0.1,0,0.3-0.1l1.2-3.1c-0.1-1,0.5-1.8,0.2-3.1c0.4-2.6-1-5.3-2.2-7.5
				c-0.1,0-0.2-0.1-0.3-0.1c-1.5-2.2-3.1-4.3-5.5-4.9c-0.3-0.5-0.9-0.4-0.9-0.7c-0.9-0.1-1.9-0.3-2.6-0.6c-2.6,0-4.7-0.8-7.3-0.3
				c-0.2-0.3-0.3,0.1-0.8,0c0.4,1.1,0.8,2.6,1.2,4.2L48.8,204.7z M73.7,250c1-0.9,1.4-2.2,1.4-3.6c-0.1-0.9-0.3-1.8-0.6-2.6
				c0.1-0.9-0.9-1.8-1.5-2.4c-0.4-0.2-1-0.8-1.3-1.5c-1-0.5-2-1.1-2.9-1.7c-2-0.6-5-0.8-6.6-0.5c-0.6,0.1-1.5,0.2-1.9,0.3l-0.6,0.1
				l0.1,0.6c0.3,1.2,0.5,2.2,1,3.3c0.1,0.6,0.3,1.3,0.6,2c0.4,2.8,2,6.4,2.6,9.2c0.3,0.4,1,2.7,0.9,2.2c2.1-0.2,3.8-0.9,5.5-2.1
				c0.3-0.2,0.9-0.7,0.9-0.7C72.2,251.9,73.2,251.1,73.7,250z"/>
			<path class="st2" d="M156.1,148.4c0.2,1.4,1.3,2.7,1.3,3.9c0.7,1.4,1.3,3.2,2,5.3c0.3,0.7,0.8,1.5,0.6,1.7
				c0.6,0.6,1.2,3.6,1.3,3.9c0.3,1.2,1.3,2.5,1.3,3.9l3.4,8.1c1.5,5,3.2,9.3,5.2,14l2.3,6.7l0.6,1.6l0.2-3.8l0.3-1.5
				c-0.4-1.6,0.2-2.3-0.3-2.4l-0.3-1.8l-0.1-0.4c0.3-0.2-0.1-6.6,0.1-7.1l-0.6-2.9l-0.3-8.1c-0.1-0.3-0.4-1.6,0-2.5
				c-0.5-1.3-0.4-5.9-0.6-7.4c0.7-0.2,11.5-4.3,11.7-4.3c1.2,1.1,3.6,6.8,3.5,7.3l0.4,0.9c0.9,1.8,2.9,5.4,3.2,6.7l3.8,8.2
				c0.3,0.1,1.7,3,2,4.2l3,5.7l-2.6-11.2c-0.4-1.1-0.5-4.7-0.7-5.2l-0.8-3.7c-0.4-0.9-0.5-1.4-0.4-2.3c-0.6-0.6-4.3-17.8-3.9-19
				l-1.4-7l2.2-0.6c0.6-0.1,1.9-0.8,1.9-0.5l3.1-0.8c0.6,0,2.4-0.6,5.6-1.4l1.3-0.5c0.7,0.8-0.1,0.8,0,1.9l1.1,5.9l0.5,5.2
				c0.7,3.6,0.7,7.2,1.1,10.9c0.3,1.7,1.6,8.4,1.4,9.6c1,3.5,3.2,15.3,4.3,20.6c0.1,1.2,2.4,12.2,2.8,13.9c0.2,1.4,0.4,2.9,2.1,10.8
				c0.1,0.9,0.4,2.1,0.7,3.3c0.2,1.5,0.6,3,0.3,4.3l-0.4,1.4c-1.3,0-5.5,1.2-5.5,1.2c-2.7,0.5-4.7,2.1-7.6,2.2
				c-0.1-0.6-3.4-7.3-4.8-9.8c0.1-0.2-4.8-10.5-5.6-11.7c-0.1-1.2-4.1-8.4-4.3-9l-1.5-3.4c-0.5,0-0.4-1.1-1.7-3.7c0,0-3.4-7.2-3-7
				l0.7,4.6l0.9,5.4l2.9,16.1l1,6.7l0.3,4.2l0.4,1.5l0.3,3.7c0.5,0.2,0.3,1,0.2,1.4l1.1,5.2l-3.7,1.1l-8.3,2.5l-4,1.1
				c0-0.6-1.4-3.7-1.3-3.9l-2.6-7.9c-0.7-1.7-1.4-3-1.8-4.6c-0.4-0.4-0.4-1.1-0.7-1.7l-1-2c-0.4-0.9-1.7-2.9-1.9-4.6l-1.8-4.6
				c-0.2-0.7-3.5-8.3-4.6-10.3c-0.1-1.1-0.6-1.6-0.6-1.6c-0.2-0.9-0.7-1.6-1-2.1c-0.5-1.3-0.8-2.6-1.4-3.7c-0.1-0.3-0.4-0.5-0.5-0.8
				l-0.5-1.3c-1-2.1-1.7-4.2-2.4-6.3l-1-2c-0.7-1.4-0.7-2.3-1.5-3.6l-2.6-6.7l-0.9-1.7l-1.7-5.6c-0.6-0.6-0.6-1.6-0.9-2.4
				c-1-2-2.5-5.7-3.1-7.6C142.5,151.4,155.2,148.4,156.1,148.4z"/>
			<path class="st2" d="M218.1,128c0.6-1.2,3.8-1.9,5-2.3c1.4-0.5,6.2-1.7,6.5-1.6l6,19.9c1.5,1.8,5.8,16.7,5.4,14.8l1.6,5.3
				l0.1,0.4l1.1,3.1l-0.1,0.3l0.1,0.4l1.6,5.8l0.1,0.6l1.3,5.2l0.6,1.1l0.4,1.4l0.4,1l0.4,2.4l1.3,3.8l1.5,4.7l0.2,0.7l0.4,1.1
				c0,0.1,0.5,0.9,0.4,1.1c0.1,1,0.3,1.8,0.6,2.5l9.6-2.8c1.4-0.5,2.5-1.1,3.9-1.4c1.3-0.3,2.7-1,4-1.3c1.4-0.4,6.1-1.4,6.9-1.7
				c0.4,0.2,0.8,0.9,1.4,3.7c0.5,1.9,2.1,4.6,2.5,6.3l0.1,0.4c0.1,0.4,0.8,1.2,0.5,1.4l0.3,0.4l-5.8,1.9c-1,0.3-4.8,1.5-7.6,2
				c-2.9,0.9-3.7,1.4-4.5,1.6l-1.2,0.3c-2.6,0.6-9.7,2.6-10.5,2.9l-11.2,3.2c0-0.6-1.1-5.1-3.3-13.8c-1.1-2.6-2.9-11.2-7.9-31.4
				c-0.6-2.5-2.4-9.1-2.5-9.5c-0.2-0.9-0.5-1.6-0.8-2.4c-0.9-3.6-2-7.6-3.1-11.1c-0.8-2.7-2.9-11.1-3.4-13.3l-1.8-5.5L218.1,128z"/>
			<path class="st2" d="M321.2,166c0-0.2,0-0.3,0-0.5l0.4-0.1l-0.5-1.8c-0.1-0.3-0.1-0.6-0.2-1c-0.1-0.4-0.1-0.7-0.2-1.1
				c-0.3-1-0.7-1.9-1.2-2.7c-0.2-0.4-0.4-0.7-0.5-1l0-0.1c-0.1-0.2-0.2-0.5-0.4-0.8c-0.3-0.7-0.6-1.4-1.2-2
				c-0.9-1.9-2.4-3.1-3.7-4.3c-0.2-0.1-0.3-0.3-0.5-0.4c-0.3-0.5-0.8-0.8-1.1-1.1c-0.1-0.1-0.3-0.3-0.4-0.3l-0.2-0.3l-4.6-2.6
				l-0.2,0c-1.4-0.6-6.9-3.7-7.9-4.4l0,0c-1.2-0.8-2.2-1.4-3-1.9c-1.9-1.2-3.3-2-5.5-3.9c-0.3-0.4-0.7-0.6-0.9-0.7
				c-0.3-0.4-0.7-0.6-1.1-0.9c-0.2-0.4-0.5-0.7-0.9-1.2c-0.1-0.3-0.3-0.5-0.4-0.7l0-0.3l-0.5-0.5c-0.9-0.9-1.3-5.1-1-6.2
				c0.4-1.4,2-2.6,4.7-3.6l0.1,0c0.9-0.4,2.4-0.3,3.4-0.3c0.2,0,0.4,0.1,0.6,0.2c0.4,0.2,0.9,0.4,1.5,0.5c0.3,0.1,0.5,0.2,0.8,0.3
				c0.1,0.1,0.4,0.1,0.5,0.2l0.1,0.2l0.6,0.3c0.7,0.3,1.1,0.7,1.7,1.2c0.4,0.3,0.8,0.7,1.3,1.1l0.3,0.3c0.7,0.7,1.2,1.2,1.9,2
				l0.1,0.1c0.3,0.3,0.6,0.6,0.9,0.9c0.2,0.2,0.6,0.5,0.7,0.7l0.9,3.6l2.4-3.1c0.8-1,1.4-2.2,1.9-3.2c0.1-0.3,0.3-0.5,0.4-0.8
				c0.7-1.1,1.4-2,2-2.8c0.6-0.8,1.2-1.5,1.6-2.2l0.3-0.6l-0.2-0.7c-0.1-0.5-1-2.2-2.7-4l-2.9-2.8l0,0c-0.1-0.1-0.3-0.3-0.5-0.5
				c-0.5-0.5-1-1.1-1.8-1.4c-0.8-0.7-1.6-1.3-2.4-1.8c-0.4-0.3-0.8-0.6-1.2-0.9c-0.8-0.6-2.2-1.6-4-1.6c-1.9-0.8-3.3-1.1-4.4-1.2
				c-0.7-0.2-1.5-0.3-2.3-0.2l-0.5-0.3l-0.6,0c-1.5,0.1-3.3,0.3-6.2,1l-0.2,0.1l-2.3,1.2c-1.2,0.3-2.1,1-2.8,1.5
				c-0.3,0.2-0.7,0.4-1,0.7c-0.3,0.2-0.9,0.7-1.2,0.8l-1.2,0.3l-0.2,1.1c0,0,0,0.1-0.1,0.1c-0.2,0.2-0.4,0.5-0.6,0.8l-0.8,1l-1,1.7
				c0,0-0.8,1.6-0.6,2.9l-0.1,0.4c-0.3,0.7-0.3,1.4-0.3,2c0,0.1,0,0.2,0,0.3l-0.8,3l-0.2,1.9l0.3,5.5l0.2,0.4c0,0.1,0,0.4,0.1,0.6
				c0.1,0.6,0.2,1.4,0.4,2.7c0,1.4,0.2,2.8,0.6,4.1c0.5,2.1,0.9,3.1,1.5,3.7l0.8,1.2c1,1.7,2.3,3.4,3.3,4.7l0.2,0.2l7.6,5.3
				c0.7,0.6,1.7,1,2.5,1.3c0.4,0.1,1,0.3,1.1,0.5l0.3,0.2l2.4,0.9l0.1,0c1.4,0.4,2.5,1.2,3.8,2.2c0.4,0.3,0.8,0.6,1.2,0.9
				c0.7,0.6,1.1,0.8,1.4,0.9c0.1,0.1,0.2,0.2,0.6,0.5c0.3,0.3,0.6,0.5,0.9,0.8c0.4,0.3,0.8,0.6,1.1,1l0.1,0.1c1,0.9,1.8,2.3,2.3,3.7
				c0.2,0.8,0.2,1.6,0.1,2.4l0,0.1c0,0.1,0,0.1-0.1,0.2c0,0.1-0.1,0.2-0.1,0.4c-0.1,0.2-0.1,0.5-0.1,0.8c-0.2,0.3-0.6,0.8-1.6,1.4
				l-0.1,0.1l-1.5,0.5l-3.9,0.4c-1-0.1-2.2-0.5-4.3-1.3c-0.9-0.3-2-0.7-3.2-1.2l-4.6-3.8l-0.1-0.1c-1.4-1-2.7-2.4-4-3.7l-3.2-4.7
				l-2.7,4.1c-0.7,0.5-1,1.2-1.2,1.7c0,0.1-0.1,0.2-0.1,0.3l-0.2,0.2l-0.8,0.7l-0.1,0.6c-0.1,0.1-0.2,0.3-0.4,0.5
				c-0.3,0.4-0.6,0.8-0.8,1.3l-2.1,2.4l0.9,1.2c0.7,1,4,3.8,4.8,4.3c0.6,0.5,2.5,2.1,6.3,5.2c0.9,0.8,1.7,1.4,2.2,1.8l0.5,0.3
				c1.4,0.8,3,1.8,5.3,1.8c0.3,0.1,0.7,0.2,1.1,0.2c0.4,0.1,0.8,0.2,1.3,0.3c0.8,0.2,1.7,0.3,2.4,0.5l3.2,0.6l0.6,0
				c1.3,0,2.7,0,5.1-0.7c0.2,0,0.4,0,0.6,0c1.6-0.2,3.4-0.7,4.8-1.3c0.7-0.3,1.4-0.6,2-1.1c0.9-0.4,1.6-1,2.3-1.5
				c0.3-0.2,0.5-0.4,0.7-0.6c1.2-0.8,2.1-1.8,2.7-2.6c0.1-0.1,0.2-0.2,0.4-0.4c0.2-0.2,0.7-0.8,0.9-1l0.4-0.2l1.5-2.8
				c0.4-0.5,0.5-1,0.7-1.4c0-0.1,0.1-0.3,0.1-0.3l0.2-0.3l0.1-0.4c0.1-0.6,0.2-1.1,0.4-1.6c0.2-0.7,0.4-1.5,0.5-2.5
				c0-0.1,0-0.1,0.1-0.2l0.3-0.4l-0.1-0.6C321.3,166.4,321.3,166.2,321.2,166z"/>
		</g>
	</g>
</g>
<g>
	<path class="st1" d="M332.7,212.6c0.8,2.9-0.6,5.3-3.4,6c-2.6,0.7-5.2-0.8-5.9-3.6c-0.7-2.7,0.6-5.3,3.3-6
		C329.6,208.3,332,210,332.7,212.6z M324.6,214.7c0.6,2.1,2.5,3.3,4.4,2.8c2.2-0.6,3.1-2.4,2.5-4.6c-0.6-2.2-2.4-3.3-4.5-2.8
		C324.9,210.7,324.1,212.7,324.6,214.7z M326.7,216.5l-1.2-4.6l2.2-0.6c0.9-0.3,2-0.3,2.3,0.8c0.2,0.6-0.1,1.1-0.5,1.3
		c0.5,0,0.8,0.4,0.9,1c0.1,0.2,0.2,0.7,0.3,1l-1.5,0.4c-0.1-0.2-0.3-0.7-0.3-0.9c-0.1-0.5-0.4-0.7-0.9-0.5l-0.4,0.1l0.4,1.6
		L326.7,216.5z M327.5,213.5l0.6-0.2c0.4-0.1,0.5-0.3,0.4-0.6c-0.1-0.4-0.3-0.4-0.7-0.2l-0.5,0.1L327.5,213.5z"/>
</g>
</svg>
